<svg width="439" height="302" viewBox="0 0 439 302" fill="none" xmlns="http://www.w3.org/2000/svg">
<path d="M124.222 18.8682L124.36 18.9818H124.539H171.728H171.943L172.092 18.8246L181.576 8.75781H186.419H249.467H254.722L265.768 18.8509L265.911 18.9818H266.105H313.293H313.468L313.605 18.873L326.311 8.75781H379.649H379.83L379.969 8.64216L389.754 0.5H438.5V18.261L432.825 23.4353L432.662 23.584V23.8047V124.875V133.845V169.728V178.698V275.078V275.27L432.791 275.413L438.5 281.744V301.5H389.726L379.929 294.9L379.802 294.815H379.649H326.354L313.659 281.211L313.511 281.052H313.293H266.105H265.867L265.717 281.237L254.678 294.815H249.467H186.419H181.62L172.137 281.265L171.988 281.052H171.728H124.539H124.317L124.168 281.217L111.863 294.815H58.5723H58.3679L58.222 294.958L51.5571 301.5H0.5V281.744L5.43072 276.276L5.5594 276.133V275.941V223.551V187.669V178.698V169.728V151.786V133.845V124.875V115.904V80.0221V23.095V22.8743L5.39629 22.7256L0.5 18.261V1.67969H51.1677L58.2217 8.61437L58.3676 8.75781H58.5723H111.906L124.222 18.8682Z" stroke="url(#paint0_linear)"/>
<defs>
<linearGradient id="paint0_linear" x1="0" y1="0" x2="439" y2="6.26103e-06" gradientUnits="userSpaceOnUse">
<stop stop-color="#EBBF32"/>
<stop offset="1" stop-color="#BD862B"/>
</linearGradient>
</defs>
</svg>
